# Blender 3.4.1
# www.blender.org
mtllib pekin.mtl
o Plane
v 0.039294 -1.579977 0.816085
v 5.407238 -1.579977 -1.401876
v 5.103825 -1.579977 -2.151659
v 0.309732 0.334052 0.450881
v 0.501302 0.884787 0.744311
v 0.307640 0.884787 0.278132
v 5.777808 -0.481517 -1.757744
v 5.617595 -0.481517 -2.153656
v 6.030036 -0.082761 -1.868529
v 5.875885 -0.082761 -2.249461
v 4.496488 -0.105332 -1.325886
v 4.396538 -0.105332 -1.572880
v 3.441776 0.314073 -0.755238
v 3.241792 0.314073 -1.249430
v 2.418994 0.459364 -0.136224
v 2.076354 0.459364 -0.982940
v 1.211259 -0.022571 0.163034
v 1.467570 1.040029 0.204912
v 1.371682 1.040029 -0.025908
v 1.396618 1.902563 0.485032
v 0.935813 2.354670 0.647837
v 0.161344 2.354670 0.801152
v -0.367332 1.813211 0.978756
v -0.543661 1.630683 1.047262
v -1.367465 1.263981 1.375699
v -1.458084 1.263981 1.157566
v -1.364709 1.128555 1.480391
v -1.530661 1.128555 1.080914
v -0.127294 1.282038 1.019735
v -0.331082 1.282038 0.529183
v 1.651676 -0.563170 0.941905
v 4.999434 -0.591653 -0.877650
v 2.989677 -0.591653 0.680374
v 0.975603 0.935196 0.538467
v 0.369476 1.888020 1.051326
v 0.951711 1.652555 0.864377
v -0.008730 -0.082174 0.750115
v 0.677795 0.194163 0.373628
v -0.295918 -1.579977 -0.012275
v -0.691433 -0.794503 -0.097695
v -0.185507 -0.794503 1.152528
v 0.152394 0.334052 0.062074
v 6.211010 -0.511612 -2.163420
v 1.000390 -0.022571 -0.358056
v 1.123131 1.902563 -0.173299
v 0.682609 2.354670 0.038328
v 0.027474 2.354670 0.478906
v -0.471426 1.813211 0.728182
v -0.644393 1.630683 0.804782
v 1.460663 -1.579977 -1.566086
v 2.382125 -1.579977 0.710993
v 0.775194 -0.563170 -1.224020
v 4.446213 -0.591653 -2.244745
v 1.918527 -0.591653 -1.966608
v 0.788182 0.935196 0.087312
v -0.002923 1.888020 0.154896
v 0.540395 1.652555 -0.125736
v -0.284547 -0.082174 0.068528
v 0.470599 0.194163 -0.138384
v -0.594027 1.630683 0.926022
vn -0.0000 -1.0000 -0.0000
vn -0.8528 -0.3919 0.3451
vn -0.8479 0.4042 0.3431
vn -0.6624 0.6995 0.2681
vn -0.4627 -0.8654 0.1922
vn 0.6671 -0.6943 -0.2700
vn 0.0503 0.9985 -0.0204
vn 0.7628 -0.5682 -0.3087
vn -0.0129 0.9999 0.0052
vn 0.3077 0.9433 -0.1245
vn 0.1133 0.9925 -0.0458
vn -0.9190 0.1148 0.3773
vn 0.9055 0.1966 -0.3761
vn -0.0000 1.0000 -0.0000
vn -0.6441 0.7166 0.2676
vn -0.6413 0.7195 0.2664
vn -0.8898 0.2676 0.3696
vn 0.1067 -0.9933 -0.0443
vn -0.1993 0.8537 -0.4811
vn 0.0414 -0.3834 0.9227
vn 0.1291 -0.1305 0.9830
vn 0.5700 -0.2528 0.7818
vn 0.1894 -0.0861 0.9781
vn 0.2524 0.3616 0.8975
vn -0.5797 0.4841 -0.6554
vn 0.6930 -0.1705 0.7005
vn -0.1532 0.7691 0.6205
vn 0.1579 0.6579 0.7364
vn 0.7339 -0.2941 0.6123
vn 0.7509 -0.0398 0.6592
vn 0.6837 0.0057 0.7297
vn 0.2032 0.7689 0.6062
vn 0.3626 0.8061 0.4677
vn 0.2029 0.1661 0.9650
vn 0.1968 -0.2632 0.9445
vn 0.3940 0.2790 0.8757
vn -0.1011 0.0310 0.9944
vn -0.1312 0.4223 0.8969
vn 0.2495 -0.2533 0.9347
vn 0.5380 0.2595 0.8020
vn 0.5776 -0.1708 0.7982
vn 0.2413 -0.3021 0.9222
vn 0.4206 0.1693 0.8913
vn 0.5774 -0.3217 0.7504
vn 0.4029 -0.3674 0.8383
vn 0.1656 0.5223 0.8365
vn 0.4450 0.6875 0.5739
vn 0.5499 0.6173 0.5626
vn 0.0058 -0.4718 0.8817
vn 0.3249 0.3755 0.8680
vn 0.4040 -0.3503 0.8450
vn 0.9067 -0.2027 -0.3699
vn -0.3377 0.9313 0.1367
vn 0.0393 0.4841 0.8741
vn -0.6119 -0.3834 -0.6918
vn -0.5908 -0.1305 -0.7962
vn -0.1341 -0.2528 -0.9582
vn -0.5442 -0.0861 -0.8345
vn -0.4583 0.3626 -0.8115
vn 0.1914 0.8537 0.4843
vn -0.0073 -0.1705 -0.9853
vn -0.5416 0.7691 -0.3393
vn -0.3986 0.6579 -0.6390
vn 0.1016 -0.2941 -0.9504
vn 0.0812 -0.0398 -0.9959
vn -0.0162 0.0057 -0.9999
vn -0.2756 0.7689 -0.5769
vn -0.0647 0.8061 -0.5883
vn -0.5406 0.1661 -0.8247
vn -0.5303 -0.2632 -0.8059
vn -0.3425 0.2790 -0.8971
vn -0.7759 0.0310 -0.6301
vn -0.7281 0.4223 -0.5399
vn -0.4862 -0.2533 -0.8363
vn -0.1886 0.2595 -0.9471
vn -0.2401 0.3651 -0.8995
vn -0.2226 0.3701 -0.9019
vn -0.3176 0.1693 -0.9330
vn -0.1243 -0.3217 -0.9386
vn -0.3097 -0.3674 -0.8770
vn -0.4759 0.5223 -0.7076
vn -0.0793 0.6875 -0.7218
vn 0.0038 0.6173 -0.7867
vn -0.3413 0.4251 -0.8384
vn -0.3702 0.3755 -0.8497
vn -0.3732 0.4130 -0.8308
vn 0.6276 0.7336 -0.2607
vn -0.3529 0.9241 0.1466
s 0
usemtl Material.002
f 51//1 50//1 3//1 2//1
f 1//2 41//2 40//2 39//2
f 41//3 37//3 58//3 40//3
f 37//4 4//4 42//4 58//4
f 6//5 5//5 29//5 30//5
f 6//12 42//12 4//12 5//12
f 1//1 39//1 50//1 51//1
f 20//26 36//26 18//26
f 36//35 35//35 5//35
f 21//36 35//36 36//36
f 35//37 23//37 29//37
f 22//38 23//38 35//38
f 29//39 5//39 35//39
f 21//40 36//40 20//40
f 34//41 17//41 18//41
f 17//42 34//42 38//42
f 37//43 17//43 38//43
f 18//44 36//44 34//44
f 5//45 34//45 36//45
f 35//46 21//46 22//46
f 5//49 4//49 38//49
f 38//50 4//50 37//50
f 38//51 34//51 5//51
f 45//61 19//61 57//61
f 57//70 6//70 56//70
f 46//71 57//71 56//71
f 56//72 30//72 48//72
f 47//73 56//73 48//73
f 30//74 56//74 6//74
f 46//75 45//75 57//75
f 55//76 19//76 44//76
f 44//77 59//77 55//77
f 58//78 59//78 44//78
f 19//79 55//79 57//79
f 6//80 57//80 55//80
f 56//81 47//81 46//81
f 6//84 59//84 42//84
f 59//85 58//85 42//85
f 59//86 6//86 55//86
usemtl Material.012
f 3//6 43//6 2//6
f 43//7 8//7 7//7
f 8//8 10//8 9//8 7//8
f 10//9 12//9 11//9 9//9
f 12//10 14//10 13//10 11//10
f 14//11 16//11 15//11 13//11
f 45//13 20//13 18//13 19//13
f 21//14 46//14 47//14 22//14
f 22//15 47//15 48//15 23//15
f 44//19 52//19 58//19
f 1//20 51//20 41//20
f 51//21 31//21 41//21
f 2//22 32//22 33//22 51//22
f 31//23 51//23 33//23
f 58//25 52//25 40//25
f 17//27 31//27 15//27
f 31//28 33//28 15//28
f 7//29 9//29 32//29
f 32//30 2//30 7//30
f 2//31 43//31 7//31
f 9//32 11//32 32//32
f 32//33 11//33 33//33
f 13//47 15//47 33//47
f 13//48 33//48 11//48
f 18//52 17//52 44//52 19//52
f 16//53 44//53 17//53 15//53
f 31//54 37//54 41//54
f 39//55 40//55 50//55
f 50//56 40//56 52//56
f 3//57 50//57 54//57 53//57
f 52//58 54//58 50//58
f 31//60 17//60 37//60
f 44//62 16//62 52//62
f 52//63 16//63 54//63
f 8//64 53//64 10//64
f 53//65 8//65 3//65
f 3//66 8//66 43//66
f 10//67 53//67 12//67
f 53//68 54//68 12//68
f 14//82 54//82 16//82
f 14//83 12//83 54//83
f 20//87 45//87 46//87 21//87
f 48//16 60//16 23//16
usemtl Material.013
f 49//16 60//16 48//16
f 26//17 28//17 27//17 25//17
f 28//18 30//18 29//18 27//18
f 24//24 25//24 27//24 29//24
f 24//34 29//34 23//34
f 49//59 30//59 28//59 26//59
f 49//69 48//69 30//69
f 23//16 60//16 24//16
f 26//88 25//88 24//88 60//88 49//88
