# Blender 3.4.1
# www.blender.org
mtllib tree.mtl
o Tree_Spruce_tiny_02
v 0.398192 0.000795 0.678254
v 0.371789 1.512221 1.133886
v 1.137180 0.007966 1.049284
v 0.810781 1.512221 1.422379
v 1.322098 0.001589 1.766948
v 0.971785 1.512221 1.787512
v 1.233734 0.000000 2.637025
v 0.755500 1.512221 2.176907
v 0.376634 0.003688 2.763234
v 0.375958 1.512221 2.283971
v -0.266625 0.009275 2.584724
v -0.054756 1.512221 2.093891
v -0.786367 0.000000 1.884997
v -0.192739 1.512221 1.751165
v -0.401545 0.010241 1.112705
v -0.040304 1.512221 1.354551
v 0.371474 0.475284 1.001015
v 0.947536 0.420584 1.228491
v 1.152160 0.357647 1.748483
v 0.946809 0.392159 2.321916
v 0.418265 0.408640 2.582298
v -0.162376 0.483867 2.297651
v -0.329219 0.646807 1.774369
v -0.202669 0.567210 1.226622
v 0.228017 4.230973 1.254874
v 0.580878 4.230973 1.486764
v 0.710293 4.230973 1.780257
v 0.536443 4.230973 2.093252
v 0.231368 4.230973 2.179310
v -0.114839 4.230973 2.026524
v -0.225750 4.230973 1.751042
v -0.103223 4.230973 1.432244
v 0.354628 5.798997 1.317715
v 0.662752 5.798997 1.520205
v 0.775759 5.798997 1.776489
v 0.623951 5.798997 2.049802
v 0.357554 5.798997 2.124949
v 0.055240 5.798997 1.991533
v -0.041609 5.798997 1.750978
v 0.065383 5.798997 1.472597
v 0.337082 7.189987 1.421381
v 0.571406 7.189987 1.575372
v 0.657346 7.189987 1.770272
v 0.541898 7.189987 1.978123
v 0.339307 7.189987 2.035271
v 0.109402 7.189987 1.933811
v 0.035749 7.189987 1.750872
v 0.117116 7.189987 1.539167
v 0.391606 8.315424 1.502819
v 0.567954 8.315424 1.618710
v 0.632631 8.315424 1.765389
v 0.545747 8.315424 1.921814
v 0.393280 8.315424 1.964823
v 0.220257 8.315424 1.888465
v 0.164828 8.315424 1.750788
v 0.226063 8.315424 1.591463
v 0.428884 10.186936 1.750534
v 0.639610 2.895269 -2.072620
v 0.547798 5.754042 0.822936
v 3.179076 2.437815 -0.919760
v 1.342692 5.862856 1.035137
v 4.285812 2.770155 1.993348
v 1.601642 5.774800 1.822961
v 3.233704 2.542753 4.458030
v 1.340711 5.852193 2.611609
v 0.253206 2.903153 5.506831
v 0.547652 5.869648 2.948415
v -2.289190 2.580637 4.427133
v -0.191838 5.817035 2.570995
v -3.379449 2.936896 1.838828
v -0.581409 5.909196 1.825200
v -2.226886 2.675224 -0.898825
v -0.250352 5.909419 1.017439
v 0.595447 5.253122 -1.218576
v 0.530388 7.735582 0.905903
v 2.744315 5.465191 -0.449704
v 1.193855 7.799322 1.155734
v 3.774489 5.167616 1.715784
v 1.395186 7.732087 1.822258
v 2.902642 5.583480 3.957970
v 1.137854 7.731285 2.433976
v 0.575426 5.088979 4.790945
v 0.542408 7.620231 2.621783
v -1.527999 5.473159 3.980671
v -0.152022 7.758692 2.509182
v -2.372264 4.947474 1.815095
v -0.468906 7.756707 1.816332
v -1.625576 5.465092 -0.370560
v -0.061213 7.635249 1.222801
v 0.480865 7.503823 -0.215769
v 1.986155 7.456101 0.398803
v 2.505688 7.391036 1.819293
v 1.967594 7.558062 3.255569
v 0.587954 10.981411 1.822684
v 0.507800 7.366525 3.819462
v -0.937563 7.373109 3.213366
v -1.444445 7.540404 1.850435
v -0.920659 7.453654 0.390207
v 1.720947 8.564108 1.809865
v -0.615549 8.679404 1.818707
v 1.186968 8.544077 1.163789
v 1.244909 8.586536 2.577381
v -0.273690 8.609872 2.685076
v 0.568288 8.631845 0.775535
v 0.547754 8.477016 2.780817
v -0.202698 8.699974 1.061221
v 0.635723 2.462990 -1.660889
v 0.543807 5.321763 1.234667
v 2.880024 2.005137 -0.637249
v 1.043345 5.430196 1.317352
v 3.857210 2.357906 1.989932
v 1.173039 5.362552 1.819597
v 2.932021 2.123157 4.162081
v 1.039411 5.432615 2.315259
v 0.255106 2.488830 5.079902
v 0.548646 5.455344 2.521450
v -2.005302 2.154968 4.121023
v 0.092207 5.391366 2.265042
v -2.966933 2.505589 1.829974
v -0.168859 5.477908 1.817357
v -1.942981 2.240984 -0.602981
v 0.034651 5.475236 1.312272
v 0.615787 4.827624 -0.801441
v 0.549787 7.310083 1.323090
v 2.468322 5.022194 -0.157292
v 0.918368 7.356363 1.448668
v 3.379472 4.717099 1.711183
v 1.000169 7.281590 1.817866
v 2.646571 5.126413 3.665559
v 0.881191 7.274199 2.142123
v 0.581334 4.663138 4.373654
v 0.548055 7.194352 2.204509
v -1.227414 5.059083 3.677210
v 0.151265 7.344960 2.208021
v -1.927085 4.556873 1.825029
v -0.023571 7.366258 1.823792
v -1.315631 5.050941 -0.076720
v 0.248383 7.221059 1.516955
v 0.450067 7.081390 0.203335
v 1.675321 7.049563 0.700486
v 2.071071 6.986746 1.835676
v 1.682608 7.141091 2.940570
v 0.563257 10.358155 1.823189
v 0.500793 6.957894 3.388000
v -0.651113 6.974113 2.880693
v -0.993509 7.156692 1.846255
v -0.617059 7.051097 0.703516
v 1.250286 8.212272 1.839390
v -0.134693 8.343043 1.828886
v 0.847655 8.236105 1.526457
v 0.951087 8.257946 2.190957
v 0.011592 8.262835 2.305832
v 0.510911 8.283549 1.245829
v 0.517758 8.154785 2.292727
v 0.119029 8.365766 1.420421
vn 0.4540 0.1636 -0.8759
vn 0.9154 0.1672 -0.3662
vn 0.9055 0.1662 0.3906
vn 0.3694 0.2189 0.9031
vn -0.4008 0.2216 0.8890
vn -0.9210 0.1612 0.3545
vn -0.9407 0.1722 -0.2924
vn -0.3957 0.1517 -0.9058
vn 0.0214 -0.9998 -0.0026
vn -0.3692 0.4139 -0.8321
vn -0.8244 0.4502 -0.3430
vn -0.7137 0.5227 0.4663
vn -0.2809 0.4867 0.8272
vn 0.2295 0.5642 0.7931
vn 0.8119 0.5636 0.1523
vn 0.8576 0.4523 -0.2446
vn 0.3684 0.5243 -0.7678
vn -0.0006 -0.9998 0.0206
vn -0.0018 -1.0000 -0.0084
vn -0.0046 -1.0000 -0.0023
vn -0.0043 -1.0000 -0.0020
vn -0.0087 -1.0000 0.0001
vn 0.9116 0.0866 -0.4019
vn -0.4037 0.0137 0.9148
vn -0.4720 0.0143 -0.8815
vn 0.5480 0.0661 -0.8339
vn 0.8710 0.0851 0.4838
vn -0.9276 -0.0112 0.3735
vn 0.2711 0.0514 0.9612
vn -0.9334 -0.0113 -0.3587
vn -0.4029 0.0641 0.9130
vn 0.8737 -0.0353 0.4853
vn 0.5492 -0.0109 -0.8356
vn -0.4708 0.0732 -0.8792
vn -0.9222 0.1083 0.3713
vn 0.2715 0.0115 0.9624
vn 0.9143 -0.0391 -0.4032
vn -0.9279 0.1090 -0.3566
vn -0.9322 0.0518 -0.3583
vn -0.4032 0.0536 0.9136
vn 0.8716 0.0764 0.4841
vn 0.5479 0.0690 -0.8337
vn -0.4712 0.0596 -0.8800
vn -0.9264 0.0515 0.3730
vn 0.2709 0.0655 0.9604
vn 0.9124 0.0759 -0.4023
vn -0.9224 0.1058 0.3714
vn 0.2712 0.0472 0.9614
vn 0.9148 0.0183 -0.4034
vn -0.9281 0.1064 -0.3567
vn -0.4026 0.0764 0.9122
vn 0.8740 0.0213 0.4855
vn 0.5489 0.0338 -0.8352
vn -0.4703 0.0863 -0.8783
vn 0.5465 0.0992 -0.8316
vn -0.4683 0.1251 -0.8746
vn -0.9198 0.1298 0.3703
vn 0.2700 0.1045 0.9572
vn 0.9108 0.0960 -0.4016
vn -0.9254 0.1305 -0.3557
vn -0.4012 0.1117 0.9091
vn 0.8699 0.0985 0.4832
vn 0.3481 0.6374 -0.6874
vn 0.7348 0.6029 -0.3109
vn 0.7165 0.6209 0.3178
vn 0.3285 0.5972 0.7317
vn -0.3744 0.6292 0.6812
vn -0.6664 0.6404 0.3819
vn -0.6934 0.6368 -0.3371
vn -0.2768 0.6468 -0.7106
vn 0.2049 0.6413 -0.7394
vn 0.7190 0.6565 -0.2281
vn 0.7105 0.6797 0.1823
vn 0.1296 0.6445 0.7535
vn -0.1383 0.6214 0.7712
vn -0.7915 0.5718 0.2160
vn -0.7624 0.6047 -0.2305
vn -0.2677 0.6527 -0.7088
vn 0.3586 0.6478 -0.6721
vn 0.7091 0.6131 -0.3482
vn 0.7446 0.6007 0.2910
vn 0.1728 0.6495 0.7405
vn -0.2067 0.5853 0.7840
vn -0.7553 0.5563 0.3466
vn -0.7479 0.5742 -0.3330
vn -0.2956 0.6132 -0.7326
vn -0.2891 0.3917 -0.8735
vn -0.0509 0.3576 0.9325
vn 0.7195 0.3405 -0.6053
vn -0.8267 0.4316 0.3609
vn 0.7944 0.3698 0.4819
vn -0.8017 0.4198 -0.4255
vn 0.2123 0.3462 0.9138
vn 0.5340 0.3405 -0.7739
vn -0.3567 -0.6370 0.6834
vn -0.7333 -0.6028 0.3143
vn -0.7147 -0.6209 -0.3220
vn -0.3323 -0.5971 -0.7301
vn 0.3923 -0.6289 -0.6712
vn 0.6592 -0.6391 -0.3963
vn 0.6894 -0.6365 0.3459
vn 0.2758 -0.6468 0.7110
vn -0.1887 -0.6401 0.7448
vn -0.7253 -0.6554 0.2106
vn -0.7197 -0.6780 -0.1495
vn -0.0999 -0.6398 -0.7620
vn 0.0929 -0.6165 -0.7819
vn 0.7995 -0.5698 -0.1901
vn 0.7688 -0.6032 0.2122
vn 0.2544 -0.6524 0.7139
vn -0.3672 -0.6433 0.6718
vn -0.7103 -0.6076 0.3553
vn -0.7581 -0.5905 -0.2768
vn -0.1417 -0.6435 -0.7522
vn 0.1917 -0.5829 -0.7896
vn 0.7618 -0.5502 -0.3420
vn 0.7492 -0.5714 0.3349
vn 0.3151 -0.6088 0.7281
vn 0.3471 -0.2596 0.9012
vn -0.0694 -0.2065 -0.9760
vn -0.6095 -0.1893 0.7698
vn 0.8930 -0.3102 -0.3261
vn -0.7537 -0.2459 -0.6095
vn 0.8217 -0.2832 0.4946
vn -0.1782 -0.2016 -0.9631
vn -0.6442 -0.1899 0.7409
vn 0.2053 -0.6553 -0.7269
vn -0.2705 0.6584 0.7024
vn 0.7136 -0.6757 -0.1849
vn -0.6773 0.6779 0.2859
vn 0.6903 -0.6873 0.2259
vn -0.6676 0.6882 -0.2841
vn 0.1618 -0.6789 0.7161
vn -0.2657 0.6845 -0.6788
vn -0.2047 -0.6822 0.7019
vn 0.2888 0.6832 -0.6707
vn -0.7206 -0.6617 0.2072
vn 0.6930 0.6651 -0.2782
vn -0.7176 -0.6554 -0.2354
vn 0.6986 0.6570 0.2832
vn -0.2387 -0.6593 -0.7130
vn 0.2993 0.6594 0.6896
vn 0.3100 -0.6546 -0.6895
vn -0.3191 0.6545 0.6854
vn 0.6602 -0.6283 -0.4116
vn -0.7207 0.6325 0.2837
vn 0.6862 -0.6179 0.3839
vn -0.7307 0.6188 -0.2884
vn 0.3746 -0.6431 0.6680
vn -0.3195 0.6469 -0.6924
vn -0.3779 -0.6785 0.6300
vn 0.2492 0.6809 -0.6886
vn -0.5919 -0.6965 0.4056
vn 0.6482 0.7068 -0.2832
vn -0.6014 -0.7057 -0.3745
vn 0.6465 0.7106 0.2776
vn -0.3204 -0.6824 -0.6570
vn 0.2494 0.6810 0.6885
vn 0.2548 -0.6922 -0.6753
vn 0.6539 -0.7069 -0.2696
vn 0.6501 -0.6874 0.3240
vn 0.3412 -0.6939 0.6341
vn -0.2831 -0.7090 0.6459
vn -0.6897 -0.7103 0.1407
vn -0.6734 -0.7170 -0.1799
vn -0.2782 -0.6875 -0.6708
vt 0.548524 0.519876
vt 0.548425 0.586845
vt 0.551303 0.520194
vt 0.550075 0.586845
vt 0.551998 0.519911
vt 0.550681 0.586845
vt 0.551666 0.519841
vt 0.549867 0.586845
vt 0.548443 0.520004
vt 0.548440 0.586845
vt 0.546024 0.520252
vt 0.546821 0.586845
vt 0.544070 0.519841
vt 0.546302 0.586845
vt 0.545517 0.520295
vt 0.546875 0.586845
vt 0.548423 0.540900
vt 0.550590 0.538476
vt 0.551359 0.535687
vt 0.550587 0.537217
vt 0.548599 0.537947
vt 0.546416 0.541280
vt 0.545789 0.548500
vt 0.546265 0.544973
vt 0.547884 0.707309
vt 0.549211 0.707309
vt 0.549697 0.707309
vt 0.549044 0.707309
vt 0.547897 0.707309
vt 0.546595 0.707309
vt 0.546178 0.707309
vt 0.546638 0.707309
vt 0.548360 0.776786
vt 0.549519 0.776786
vt 0.549944 0.776786
vt 0.549373 0.776786
vt 0.548371 0.776786
vt 0.547234 0.776786
vt 0.546870 0.776786
vt 0.547272 0.776786
vt 0.548294 0.838418
vt 0.549175 0.838418
vt 0.549498 0.838418
vt 0.549064 0.838418
vt 0.548302 0.838418
vt 0.547438 0.838418
vt 0.547161 0.838418
vt 0.547467 0.838418
vt 0.548499 0.888285
vt 0.549162 0.888285
vt 0.549405 0.888285
vt 0.549079 0.888285
vt 0.548505 0.888285
vt 0.547855 0.888285
vt 0.547646 0.888285
vt 0.547877 0.888285
vt 0.548639 0.971208
vt 0.147490 0.572846
vt 0.147978 0.767986
vt 0.168219 0.569333
vt 0.152939 0.767145
vt 0.176805 0.567877
vt 0.154993 0.766797
vt 0.168219 0.569333
vt 0.152939 0.767145
vt 0.147490 0.572847
vt 0.147978 0.767986
vt 0.126762 0.576360
vt 0.143017 0.768827
vt 0.118176 0.577816
vt 0.140962 0.769175
vt 0.126762 0.576360
vt 0.143017 0.768826
vt 0.146846 0.570404
vt 0.145850 0.739279
vt 0.164785 0.577593
vt 0.150143 0.741000
vt 0.172215 0.580570
vt 0.151921 0.741713
vt 0.164785 0.577593
vt 0.150143 0.741000
vt 0.146846 0.570404
vt 0.145850 0.739279
vt 0.128908 0.563216
vt 0.141557 0.737559
vt 0.121477 0.560239
vt 0.139778 0.736847
vt 0.128908 0.563216
vt 0.141557 0.737559
vt 0.146259 0.527424
vt 0.167112 0.518991
vt 0.175749 0.515498
vt 0.167112 0.518991
vt 0.147428 0.964869
vt 0.146259 0.527424
vt 0.125406 0.535856
vt 0.116769 0.539349
vt 0.125406 0.535856
vt 0.160777 0.667492
vt 0.133179 0.682938
vt 0.155828 0.683431
vt 0.156034 0.679969
vt 0.136678 0.674347
vt 0.146810 0.682831
vt 0.146789 0.676954
vt 0.137747 0.689627
vt 0.147490 0.572846
vt 0.147978 0.767986
vt 0.168219 0.569333
vt 0.152939 0.767145
vt 0.176805 0.567877
vt 0.154993 0.766797
vt 0.168219 0.569333
vt 0.152939 0.767145
vt 0.147490 0.572847
vt 0.147978 0.767986
vt 0.126762 0.576360
vt 0.143017 0.768827
vt 0.118176 0.577816
vt 0.140962 0.769175
vt 0.126762 0.576360
vt 0.143017 0.768826
vt 0.146846 0.570404
vt 0.145850 0.739279
vt 0.164785 0.577593
vt 0.150143 0.741000
vt 0.172215 0.580570
vt 0.151921 0.741713
vt 0.164785 0.577593
vt 0.150143 0.741000
vt 0.146846 0.570404
vt 0.145850 0.739279
vt 0.128908 0.563216
vt 0.141557 0.737559
vt 0.121477 0.560239
vt 0.139778 0.736847
vt 0.128908 0.563216
vt 0.141557 0.737559
vt 0.146259 0.527424
vt 0.167112 0.518991
vt 0.175749 0.515498
vt 0.167112 0.518991
vt 0.147428 0.964869
vt 0.146259 0.527424
vt 0.125406 0.535856
vt 0.116769 0.539349
vt 0.125406 0.535856
vt 0.160777 0.667492
vt 0.133179 0.682938
vt 0.155828 0.683431
vt 0.156034 0.679969
vt 0.136678 0.674347
vt 0.146810 0.682831
vt 0.146789 0.676954
vt 0.137747 0.689627
s 0
usemtl AllColors_Material
f 17/17/1 2/2/1 4/4/1 18/18/1
f 18/18/2 4/4/2 6/6/2 19/19/2
f 19/19/3 6/6/3 8/8/3 20/20/3
f 20/20/4 8/8/4 10/10/4 21/21/4
f 21/21/5 10/10/5 12/12/5 22/22/5
f 22/22/6 12/12/6 14/14/6 23/23/6
f 23/23/7 14/14/7 16/16/7 24/24/7
f 24/24/8 16/16/8 2/2/8 17/17/8
f 11/11/9 13/13/9 15/15/9
f 15/15/10 24/24/10 17/17/10 1/1/10
f 13/13/11 23/23/11 24/24/11 15/15/11
f 11/11/12 22/22/12 23/23/12 13/13/12
f 9/9/13 21/21/13 22/22/13 11/11/13
f 7/7/14 20/20/14 21/21/14 9/9/14
f 5/5/15 19/19/15 20/20/15 7/7/15
f 3/3/16 18/18/16 19/19/16 5/5/16
f 1/1/17 17/17/17 18/18/17 3/3/17
f 15/15/18 1/1/18 3/3/18
f 3/3/19 5/5/19 15/15/19
f 5/5/20 7/7/20 9/9/20
f 15/15/21 5/5/21 9/9/21
f 9/9/22 11/11/22 15/15/22
f 6/6/23 4/4/23 26/26/23 27/27/23
f 12/12/24 10/10/24 29/29/24 30/30/24
f 2/2/25 16/16/25 32/32/25 25/25/25
f 4/4/26 2/2/26 25/25/26 26/26/26
f 8/8/27 6/6/27 27/27/27 28/28/27
f 14/14/28 12/12/28 30/30/28 31/31/28
f 10/10/29 8/8/29 28/28/29 29/29/29
f 16/16/30 14/14/30 31/31/30 32/32/30
f 30/30/31 29/29/31 37/37/31 38/38/31
f 28/28/32 27/27/32 35/35/32 36/36/32
f 26/26/33 25/25/33 33/33/33 34/34/33
f 25/25/34 32/32/34 40/40/34 33/33/34
f 31/31/35 30/30/35 38/38/35 39/39/35
f 29/29/36 28/28/36 36/36/36 37/37/36
f 27/27/37 26/26/37 34/34/37 35/35/37
f 32/32/38 31/31/38 39/39/38 40/40/38
f 40/40/39 39/39/39 47/47/39 48/48/39
f 38/38/40 37/37/40 45/45/40 46/46/40
f 36/36/41 35/35/41 43/43/41 44/44/41
f 34/34/42 33/33/42 41/41/42 42/42/42
f 33/33/43 40/40/43 48/48/43 41/41/43
f 39/39/44 38/38/44 46/46/44 47/47/44
f 37/37/45 36/36/45 44/44/45 45/45/45
f 35/35/46 34/34/46 42/42/46 43/43/46
f 47/47/47 46/46/47 54/54/47 55/55/47
f 45/45/48 44/44/48 52/52/48 53/53/48
f 43/43/49 42/42/49 50/50/49 51/51/49
f 48/48/50 47/47/50 55/55/50 56/56/50
f 46/46/51 45/45/51 53/53/51 54/54/51
f 44/44/52 43/43/52 51/51/52 52/52/52
f 42/42/53 41/41/53 49/49/53 50/50/53
f 41/41/54 48/48/54 56/56/54 49/49/54
f 50/50/55 49/49/55 57/57/55
f 49/49/56 56/56/56 57/57/56
f 55/55/57 54/54/57 57/57/57
f 53/53/58 52/52/58 57/57/58
f 51/51/59 50/50/59 57/57/59
f 56/56/60 55/55/60 57/57/60
f 54/54/61 53/53/61 57/57/61
f 52/52/62 51/51/62 57/57/62
f 58/58/63 59/59/63 61/61/63 60/60/63
f 60/60/64 61/61/64 63/63/64 62/62/64
f 62/62/65 63/63/65 65/65/65 64/64/65
f 64/64/66 65/65/66 67/67/66 66/66/66
f 66/66/67 67/67/67 69/69/67 68/68/67
f 68/68/68 69/69/68 71/71/68 70/70/68
f 70/70/69 71/71/69 73/73/69 72/72/69
f 72/72/70 73/73/70 59/59/70 58/58/70
f 74/74/71 75/75/71 77/77/71 76/76/71
f 76/76/72 77/77/72 79/79/72 78/78/72
f 78/78/73 79/79/73 81/81/73 80/80/73
f 80/80/74 81/81/74 83/83/74 82/82/74
f 82/82/75 83/83/75 85/85/75 84/84/75
f 84/84/76 85/85/76 87/87/76 86/86/76
f 86/86/77 87/87/77 89/89/77 88/88/77
f 88/88/78 89/89/78 75/75/78 74/74/78
f 90/90/79 104/104/79 101/101/79 91/91/79
f 91/91/80 101/101/80 99/99/80 92/92/80
f 92/92/81 99/99/81 102/102/81 93/93/81
f 93/93/82 102/102/82 105/105/82 95/95/82
f 95/95/83 105/105/83 103/103/83 96/96/83
f 96/96/84 103/103/84 100/100/84 97/97/84
f 97/97/85 100/100/85 106/106/85 98/98/85
f 98/98/86 106/106/86 104/104/86 90/90/86
f 104/104/87 106/106/87 94/94/87
f 103/103/88 105/105/88 94/94/88
f 99/99/89 101/101/89 94/94/89
f 100/100/90 103/103/90 94/94/90
f 102/102/91 99/99/91 94/94/91
f 106/106/92 100/100/92 94/94/92
f 105/105/93 102/102/93 94/94/93
f 101/101/94 104/104/94 94/94/94
f 107/107/95 109/109/95 110/110/95 108/108/95
f 109/109/96 111/111/96 112/112/96 110/110/96
f 111/111/97 113/113/97 114/114/97 112/112/97
f 113/113/98 115/115/98 116/116/98 114/114/98
f 115/115/99 117/117/99 118/118/99 116/116/99
f 117/117/100 119/119/100 120/120/100 118/118/100
f 119/119/101 121/121/101 122/122/101 120/120/101
f 121/121/102 107/107/102 108/108/102 122/122/102
f 123/123/103 125/125/103 126/126/103 124/124/103
f 125/125/104 127/127/104 128/128/104 126/126/104
f 127/127/105 129/129/105 130/130/105 128/128/105
f 129/129/106 131/131/106 132/132/106 130/130/106
f 131/131/107 133/133/107 134/134/107 132/132/107
f 133/133/108 135/135/108 136/136/108 134/134/108
f 135/135/109 137/137/109 138/138/109 136/136/109
f 137/137/110 123/123/110 124/124/110 138/138/110
f 139/139/111 140/140/111 150/150/111 153/153/111
f 140/140/112 141/141/112 148/148/112 150/150/112
f 141/141/113 142/142/113 151/151/113 148/148/113
f 142/142/114 144/144/114 154/154/114 151/151/114
f 144/144/115 145/145/115 152/152/115 154/154/115
f 145/145/116 146/146/116 149/149/116 152/152/116
f 146/146/117 147/147/117 155/155/117 149/149/117
f 147/147/118 139/139/118 153/153/118 155/155/118
f 153/153/119 143/143/119 155/155/119
f 152/152/120 143/143/120 154/154/120
f 148/148/121 143/143/121 150/150/121
f 149/149/122 143/143/122 152/152/122
f 151/151/123 143/143/123 148/148/123
f 155/155/124 143/143/124 149/149/124
f 154/154/125 143/143/125 151/151/125
f 150/150/126 143/143/126 153/153/126
f 58/58/127 60/60/127 109/109/127 107/107/127
f 61/61/128 59/59/128 108/108/128 110/110/128
f 60/60/129 62/62/129 111/111/129 109/109/129
f 63/63/130 61/61/130 110/110/130 112/112/130
f 62/62/131 64/64/131 113/113/131 111/111/131
f 65/65/132 63/63/132 112/112/132 114/114/132
f 64/64/133 66/66/133 115/115/133 113/113/133
f 67/67/134 65/65/134 114/114/134 116/116/134
f 66/66/135 68/68/135 117/117/135 115/115/135
f 69/69/136 67/67/136 116/116/136 118/118/136
f 68/68/137 70/70/137 119/119/137 117/117/137
f 71/71/138 69/69/138 118/118/138 120/120/138
f 70/70/139 72/72/139 121/121/139 119/119/139
f 73/73/140 71/71/140 120/120/140 122/122/140
f 72/72/141 58/58/141 107/107/141 121/121/141
f 59/59/142 73/73/142 122/122/142 108/108/142
f 74/74/143 76/76/143 125/125/143 123/123/143
f 77/77/144 75/75/144 124/124/144 126/126/144
f 76/76/145 78/78/145 127/127/145 125/125/145
f 79/79/146 77/77/146 126/126/146 128/128/146
f 78/78/147 80/80/147 129/129/147 127/127/147
f 81/81/148 79/79/148 128/128/148 130/130/148
f 80/80/149 82/82/149 131/131/149 129/129/149
f 83/83/150 81/81/150 130/130/150 132/132/150
f 82/82/151 84/84/151 133/133/151 131/131/151
f 85/85/152 83/83/152 132/132/152 134/134/152
f 84/84/153 86/86/153 135/135/153 133/133/153
f 87/87/154 85/85/154 134/134/154 136/136/154
f 86/86/155 88/88/155 137/137/155 135/135/155
f 89/89/156 87/87/156 136/136/156 138/138/156
f 88/88/157 74/74/157 123/123/157 137/137/157
f 75/75/158 89/89/158 138/138/158 124/124/158
f 90/90/159 91/91/159 140/140/159 139/139/159
f 91/91/160 92/92/160 141/141/160 140/140/160
f 92/92/161 93/93/161 142/142/161 141/141/161
f 93/93/162 95/95/162 144/144/162 142/142/162
f 95/95/163 96/96/163 145/145/163 144/144/163
f 96/96/164 97/97/164 146/146/164 145/145/164
f 97/97/165 98/98/165 147/147/165 146/146/165
f 98/98/166 90/90/166 139/139/166 147/147/166
